<svg xmlns="http://www.w3.org/2000/svg" width="225" height="225" viewBox="0 0 225 225" role="img" aria-labelledby="hpTitle">
  <title id="hpTitle">HP</title>
  <rect width="225" height="225" fill="#1797d2"/>
  <circle cx="112.5" cy="112.5" r="63" fill="#ffffff"/>
  <g fill="#1797d2" transform="matrix(1 0 -0.34 1 0 0)">
    <rect x="86" y="51" width="13" height="90" rx="2"/>
    <path d="M111 84h13v57h-13z"/>
    <path d="M124 84h13v11h15.5c11 0 18.5 7.8 18.5 18.6 0 10.7-7.2 18.4-17.8 18.4H137v34h-13zm13 23v13h14.2c4.3 0 7.2-2.6 7.2-6.5s-2.9-6.5-7.2-6.5z"/>
    <path d="M99 84h13v11h-13z"/>
  </g>
</svg>
